# xmcd
#
# Track frame offsets:
# 150
# 15681
# 33090
# 45807
# 59667
# 72189
# 87497
# 102415
# 116971
# 133067
# 145450
# 160006
# 174897
#
# Disc length: 2608 seconds
#
# Revision: 0
# Processed by: cddbd v1.5.1PL0 Copyright (c) Steve Scherf et al.
# Submitted via: Audion 3.0.2 (http://www.panic.com/audion/)
#
DISCID=af0a2e0d
DTITLE=Sixteen Horsepower - Sackcloth 'n' Ashes
DYEAR=1900
DGENRE=
TTITLE0=I Seen What I Saw
TTITLE1=Black Soul Choir
TTITLE2=Scrawled In Sap
TTITLE3=Horse Head
TTITLE4=Ruthie Lingle
TTITLE5=Harm's Way
TTITLE6=Black Bush
TTITLE7=Heel on the Shovel
TTITLE8=American Wheeze
TTITLE9=Red Neck Ree
TTITLE10=Prison Shoe Romp
TTITLE11=Neck on New Blade
TTITLE12=Strong Man
EXTD=
EXTT0=
EXTT1=
EXTT2=
EXTT3=
EXTT4=
EXTT5=
EXTT6=
EXTT7=
EXTT8=
EXTT9=
EXTT10=
EXTT11=
EXTT12=
PLAYORDER=
